<svg xmlns="http://www.w3.org/2000/svg" width="1000" height="1000" viewBox="0 0 1000 1000">
  <metadata><?xpacket begin="﻿" id="W5M0MpCehiHzreSzNTczkc9d"?>
<x:xmpmeta xmlns:x="adobe:ns:meta/" x:xmptk="Adobe XMP Core 6.0-c005 79.164590, 2020/12/09-11:57:44        ">
   <rdf:RDF xmlns:rdf="http://www.w3.org/1999/02/22-rdf-syntax-ns#">
      <rdf:Description rdf:about=""
            xmlns:xmp="http://ns.adobe.com/xap/1.0/">
         <xmp:CreatorTool>Adobe Photoshop 22.1 (Windows)</xmp:CreatorTool>
      </rdf:Description>
   </rdf:RDF>
</x:xmpmeta>
                                                                                                    
                                                                                                    
                                                                                                    
                                                                                                    
                                                                                                    
                                                                                                    
                                                                                                    
                                                                                                    
                                                                                                    
                                                                                                    
                                                                                                    
                                                                                                    
                                                                                                    
                                                                                                    
                                                                                                    
                                                                                                    
                                                                                                    
                                                                                                    
                                                                                                    
                                                                                                    
                           
<?xpacket end="w"?></metadata>
<defs>
    <style>
      .cls-1 {
        stroke: #000;
        stroke-width: 0.88px;
        fill-rule: evenodd;
      }
    </style>
  </defs>
  <path id="contour" fill="white" class="cls-1" d="M792.8,463.761l2.1-.3-26.8-28.964c-26.237-25.3-51.421-51.909-77.246-77.731C534.456,200.382,244.635,310.9,164,496c0,0,87.718,64.616,117.506,71.8,122.886,29.621,270.886,28.982,387.809-22.166,15.038-6.579,126.117-63.913,126.117-82.46Z"/>
  <path id="puille" fill="white" class="cls-1" d="M472,292c-13.922-5.622-27.92-3.553-42.307.043-62.256,15.563-107.517,65.785-120.336,128.271C291.19,508.869,371.607,586.755,456.493,594.1c24.681,2.135,52.628-3.207,76.2-10.345,59.984-18.166,96.64-60.9,101.944-123.542,1.574-18.6.935-38.683-6.831-56.155-16.14-36.311-45.563-67.8-77.772-90.44-20.3-14.272-42.376-33.052-68.313-34.876-16.334-1.148-32.832,10.391-47.82,15.074"/>
</svg>
